<mxfile host="app.diagrams.net" modified="2022-04-25T01:19:01.360Z" agent="5.0 (Windows NT 10.0; Win64; x64) AppleWebKit/537.36 (KHTML, like Gecko) Chrome/98.0.4758.102 Safari/537.36" etag="3L4W46PgFdRV3GEOeP42" version="17.4.6" type="github">
  <diagram id="JvjC3xm0Hi5qa_1F5xGV" name="第 1 页">
    <mxGraphModel dx="1673" dy="896" grid="1" gridSize="10" guides="1" tooltips="1" connect="1" arrows="1" fold="1" page="1" pageScale="1" pageWidth="827" pageHeight="1169" math="0" shadow="0">
      <root>
        <mxCell id="0" />
        <mxCell id="1" parent="0" />
        <mxCell id="kYMN8gXYN29zYbQPkMFa-84" value="&lt;table class=&quot;MsoTableGrid&quot; border=&quot;1&quot; cellspacing=&quot;0&quot; style=&quot;border-collapse: collapse ; width: 524.5000pt ; margin-left: -43.1000pt ; border: none&quot;&gt;&lt;tbody&gt;&lt;tr&gt;&lt;td width=&quot;84&quot; valign=&quot;top&quot; style=&quot;width: 63.7000pt ; padding: 0.0000pt 5.4000pt 0.0000pt 5.4000pt ; border-left: 1.0000pt solid ; border-right: 1.0000pt solid ; border-top: 1.0000pt solid ; border-bottom: 1.0000pt solid&quot;&gt;&lt;p class=&quot;MsoNormal&quot;&gt;&lt;span style=&quot;font-size: 10.5000pt&quot;&gt;&lt;font face=&quot;宋体&quot;&gt;框架&lt;/font&gt;&lt;/span&gt;&lt;span style=&quot;font-family: &amp;#34;calibri&amp;#34; ; font-size: 10.5000pt&quot;&gt;&lt;/span&gt;&lt;/p&gt;&lt;/td&gt;&lt;td width=&quot;73&quot; valign=&quot;top&quot; style=&quot;width: 55.1000pt ; padding: 0.0000pt 5.4000pt 0.0000pt 5.4000pt ; border-left: 1.0000pt solid ; border-right: 1.0000pt solid ; border-top: 1.0000pt solid ; border-bottom: 1.0000pt solid&quot;&gt;&lt;p class=&quot;MsoNormal&quot;&gt;&lt;span style=&quot;font-size: 10.5000pt&quot;&gt;&lt;font face=&quot;宋体&quot;&gt;微信小程序官方框架&lt;/font&gt;&lt;/span&gt;&lt;span style=&quot;font-size: 10.5000pt&quot;&gt;&lt;font face=&quot;Calibri&quot;&gt;MINA&lt;/font&gt;&lt;/span&gt;&lt;span style=&quot;font-family: &amp;#34;calibri&amp;#34; ; font-size: 10.5000pt&quot;&gt;&lt;/span&gt;&lt;/p&gt;&lt;/td&gt;&lt;td width=&quot;80&quot; valign=&quot;top&quot; style=&quot;width: 60.0500pt ; padding: 0.0000pt 5.4000pt 0.0000pt 5.4000pt ; border-left: 1.0000pt solid ; border-right: 1.0000pt solid ; border-top: 1.0000pt solid ; border-bottom: 1.0000pt solid&quot;&gt;&lt;p class=&quot;MsoNormal&quot;&gt;&lt;span style=&quot;font-size: 10.5000pt&quot;&gt;&lt;font face=&quot;Calibri&quot;&gt;u&lt;/font&gt;&lt;/span&gt;&lt;span style=&quot;font-size: 10.5000pt&quot;&gt;&lt;font face=&quot;Calibri&quot;&gt;ni-app&lt;/font&gt;&lt;/span&gt;&lt;span style=&quot;font-family: &amp;#34;calibri&amp;#34; ; font-size: 10.5000pt&quot;&gt;&lt;/span&gt;&lt;/p&gt;&lt;/td&gt;&lt;td width=&quot;80&quot; valign=&quot;top&quot; style=&quot;width: 60.0500pt ; padding: 0.0000pt 5.4000pt 0.0000pt 5.4000pt ; border-left: 1.0000pt solid ; border-right: 1.0000pt solid ; border-top: 1.0000pt solid ; border-bottom: 1.0000pt solid&quot;&gt;&lt;p class=&quot;MsoNormal&quot;&gt;&lt;span style=&quot;font-size: 10.5000pt&quot;&gt;&lt;font face=&quot;Calibri&quot;&gt;Taro&lt;/font&gt;&lt;/span&gt;&lt;span style=&quot;font-family: &amp;#34;calibri&amp;#34; ; font-size: 10.5000pt&quot;&gt;&lt;/span&gt;&lt;/p&gt;&lt;/td&gt;&lt;td width=&quot;73&quot; valign=&quot;top&quot; style=&quot;width: 55.1000pt ; padding: 0.0000pt 5.4000pt 0.0000pt 5.4000pt ; border-left: 1.0000pt solid ; border-right: 1.0000pt solid ; border-top: 1.0000pt solid ; border-bottom: 1.0000pt solid&quot;&gt;&lt;p class=&quot;MsoNormal&quot;&gt;&lt;span style=&quot;font-size: 10.5000pt&quot;&gt;&lt;font face=&quot;Calibri&quot;&gt;Kbone&lt;/font&gt;&lt;/span&gt;&lt;span style=&quot;font-family: &amp;#34;calibri&amp;#34; ; font-size: 10.5000pt&quot;&gt;&lt;/span&gt;&lt;/p&gt;&lt;/td&gt;&lt;td width=&quot;80&quot; valign=&quot;top&quot; style=&quot;width: 60.0500pt ; padding: 0.0000pt 5.4000pt 0.0000pt 5.4000pt ; border-left: 1.0000pt solid ; border-right: 1.0000pt solid ; border-top: 1.0000pt solid ; border-bottom: 1.0000pt solid&quot;&gt;&lt;p class=&quot;MsoNormal&quot;&gt;&lt;span style=&quot;font-family: &amp;#34;calibri&amp;#34; ; font-size: 10.5000pt&quot;&gt;W&lt;/span&gt;&lt;span style=&quot;font-size: 10.5000pt&quot;&gt;&lt;font face=&quot;Calibri&quot;&gt;ePY&lt;/font&gt;&lt;/span&gt;&lt;span style=&quot;font-family: &amp;#34;calibri&amp;#34; ; font-size: 10.5000pt&quot;&gt;&lt;/span&gt;&lt;/p&gt;&lt;/td&gt;&lt;td width=&quot;80&quot; valign=&quot;top&quot; style=&quot;width: 60.0500pt ; padding: 0.0000pt 5.4000pt 0.0000pt 5.4000pt ; border-left: 1.0000pt solid ; border-right: 1.0000pt solid ; border-top: 1.0000pt solid ; border-bottom: 1.0000pt solid&quot;&gt;&lt;p class=&quot;MsoNormal&quot;&gt;&lt;span style=&quot;font-size: 10.5000pt&quot;&gt;&lt;font face=&quot;Calibri&quot;&gt;m&lt;/font&gt;&lt;/span&gt;&lt;span style=&quot;font-size: 10.5000pt&quot;&gt;&lt;font face=&quot;Calibri&quot;&gt;pvue&lt;/font&gt;&lt;/span&gt;&lt;span style=&quot;font-family: &amp;#34;calibri&amp;#34; ; font-size: 10.5000pt&quot;&gt;&lt;/span&gt;&lt;/p&gt;&lt;/td&gt;&lt;td width=&quot;147&quot; valign=&quot;top&quot; style=&quot;width: 110.4000pt ; padding: 0.0000pt 5.4000pt 0.0000pt 5.4000pt ; border-left: 1.0000pt solid ; border-right: 1.0000pt solid ; border-top: 1.0000pt solid ; border-bottom: 1.0000pt solid&quot;&gt;&lt;p class=&quot;MsoNormal&quot;&gt;&lt;span style=&quot;font-family: &amp;#34;calibri&amp;#34; ; font-size: 10.5000pt&quot;&gt;C&lt;/span&gt;&lt;span style=&quot;font-size: 10.5000pt&quot;&gt;&lt;font face=&quot;Calibri&quot;&gt;hamelon&lt;/font&gt;&lt;/span&gt;&lt;span style=&quot;font-family: &amp;#34;calibri&amp;#34; ; font-size: 10.5000pt&quot;&gt;&lt;/span&gt;&lt;/p&gt;&lt;/td&gt;&lt;/tr&gt;&lt;tr&gt;&lt;td width=&quot;84&quot; valign=&quot;top&quot; style=&quot;width: 63.7000pt ; padding: 0.0000pt 5.4000pt 0.0000pt 5.4000pt ; border-left: 1.0000pt solid ; border-right: 1.0000pt solid ; border-top: none ; border-bottom: 1.0000pt solid&quot;&gt;&lt;p class=&quot;MsoNormal&quot;&gt;&lt;span style=&quot;font-size: 10.5000pt&quot;&gt;&lt;font face=&quot;宋体&quot;&gt;维护组织&lt;/font&gt;&lt;/span&gt;&lt;span style=&quot;font-family: &amp;#34;calibri&amp;#34; ; font-size: 10.5000pt&quot;&gt;&lt;/span&gt;&lt;/p&gt;&lt;/td&gt;&lt;td width=&quot;73&quot; valign=&quot;top&quot; style=&quot;width: 55.1000pt ; padding: 0.0000pt 5.4000pt 0.0000pt 5.4000pt ; border-left: 1.0000pt solid ; border-right: 1.0000pt solid ; border-top: none ; border-bottom: 1.0000pt solid&quot;&gt;&lt;p class=&quot;MsoNormal&quot;&gt;&lt;span style=&quot;font-size: 10.5000pt&quot;&gt;&lt;font face=&quot;宋体&quot;&gt;微信&lt;/font&gt;&lt;/span&gt;&lt;span style=&quot;font-family: &amp;#34;calibri&amp;#34; ; font-size: 10.5000pt&quot;&gt;&lt;/span&gt;&lt;/p&gt;&lt;/td&gt;&lt;td width=&quot;80&quot; valign=&quot;top&quot; style=&quot;width: 60.0500pt ; padding: 0.0000pt 5.4000pt 0.0000pt 5.4000pt ; border-left: 1.0000pt solid ; border-right: 1.0000pt solid ; border-top: none ; border-bottom: 1.0000pt solid&quot;&gt;&lt;p class=&quot;MsoNormal&quot;&gt;&lt;span style=&quot;font-family: &amp;#34;calibri&amp;#34; ; font-size: 10.5000pt&quot;&gt;D&lt;/span&gt;&lt;span style=&quot;font-size: 10.5000pt&quot;&gt;&lt;font face=&quot;Calibri&quot;&gt;cloud&lt;/font&gt;&lt;/span&gt;&lt;span style=&quot;font-size: 10.5000pt&quot;&gt;&lt;/span&gt;&lt;/p&gt;&lt;p class=&quot;MsoNormal&quot;&gt;&lt;span style=&quot;font-size: 10.5000pt&quot;&gt;&lt;font face=&quot;宋体&quot;&gt;数字天堂（北京）网络技术有限公司&lt;/font&gt;&lt;/span&gt;&lt;span style=&quot;font-size: 10.5000pt&quot;&gt;&lt;/span&gt;&lt;/p&gt;&lt;/td&gt;&lt;td width=&quot;80&quot; valign=&quot;top&quot; style=&quot;width: 60.0500pt ; padding: 0.0000pt 5.4000pt 0.0000pt 5.4000pt ; border-left: 1.0000pt solid ; border-right: 1.0000pt solid ; border-top: none ; border-bottom: 1.0000pt solid&quot;&gt;&lt;p class=&quot;MsoNormal&quot;&gt;&lt;span style=&quot;font-size: 10.5000pt&quot;&gt;&lt;font face=&quot;宋体&quot;&gt;京东&lt;/font&gt;&lt;/span&gt;&lt;span style=&quot;font-family: &amp;#34;calibri&amp;#34; ; font-size: 10.5000pt&quot;&gt;&lt;/span&gt;&lt;/p&gt;&lt;/td&gt;&lt;td width=&quot;73&quot; valign=&quot;top&quot; style=&quot;width: 55.1000pt ; padding: 0.0000pt 5.4000pt 0.0000pt 5.4000pt ; border-left: 1.0000pt solid ; border-right: 1.0000pt solid ; border-top: none ; border-bottom: 1.0000pt solid&quot;&gt;&lt;p class=&quot;MsoNormal&quot;&gt;&lt;span style=&quot;font-size: 10.5000pt&quot;&gt;&lt;font face=&quot;宋体&quot;&gt;微信&lt;/font&gt;&lt;/span&gt;&lt;span style=&quot;font-size: 10.5000pt&quot;&gt;&lt;/span&gt;&lt;/p&gt;&lt;/td&gt;&lt;td width=&quot;80&quot; valign=&quot;top&quot; style=&quot;width: 60.0500pt ; padding: 0.0000pt 5.4000pt 0.0000pt 5.4000pt ; border-left: 1.0000pt solid ; border-right: 1.0000pt solid ; border-top: none ; border-bottom: 1.0000pt solid&quot;&gt;&lt;p class=&quot;MsoNormal&quot;&gt;&lt;span style=&quot;font-size: 10.5000pt&quot;&gt;&lt;font face=&quot;宋体&quot;&gt;腾讯&lt;/font&gt;&lt;/span&gt;&lt;span style=&quot;font-family: &amp;#34;calibri&amp;#34; ; font-size: 10.5000pt&quot;&gt;&lt;/span&gt;&lt;/p&gt;&lt;/td&gt;&lt;td width=&quot;80&quot; valign=&quot;top&quot; style=&quot;width: 60.0500pt ; padding: 0.0000pt 5.4000pt 0.0000pt 5.4000pt ; border-left: 1.0000pt solid ; border-right: 1.0000pt solid ; border-top: none ; border-bottom: 1.0000pt solid&quot;&gt;&lt;p class=&quot;MsoNormal&quot;&gt;&lt;span style=&quot;font-size: 10.5000pt&quot;&gt;&lt;font face=&quot;宋体&quot;&gt;美团&lt;/font&gt;&lt;/span&gt;&lt;span style=&quot;font-family: &amp;#34;calibri&amp;#34; ; font-size: 10.5000pt&quot;&gt;&lt;/span&gt;&lt;/p&gt;&lt;/td&gt;&lt;td width=&quot;147&quot; valign=&quot;top&quot; style=&quot;width: 110.4000pt ; padding: 0.0000pt 5.4000pt 0.0000pt 5.4000pt ; border-left: 1.0000pt solid ; border-right: 1.0000pt solid ; border-top: none ; border-bottom: 1.0000pt solid&quot;&gt;&lt;p class=&quot;MsoNormal&quot;&gt;&lt;span style=&quot;font-size: 10.5000pt&quot;&gt;&lt;font face=&quot;宋体&quot;&gt;滴滴&lt;/font&gt;&lt;/span&gt;&lt;span style=&quot;font-family: &amp;#34;calibri&amp;#34; ; font-size: 10.5000pt&quot;&gt;&lt;/span&gt;&lt;/p&gt;&lt;/td&gt;&lt;/tr&gt;&lt;tr&gt;&lt;td width=&quot;84&quot; valign=&quot;top&quot; style=&quot;width: 63.7000pt ; padding: 0.0000pt 5.4000pt 0.0000pt 5.4000pt ; border-left: 1.0000pt solid ; border-right: 1.0000pt solid ; border-top: none ; border-bottom: 1.0000pt solid&quot;&gt;&lt;p class=&quot;MsoNormal&quot;&gt;&lt;span style=&quot;font-size: 10.5000pt&quot;&gt;&lt;font face=&quot;宋体&quot;&gt;开源程度&lt;/font&gt;&lt;/span&gt;&lt;span style=&quot;font-size: 10.5000pt&quot;&gt;&lt;/span&gt;&lt;/p&gt;&lt;/td&gt;&lt;td width=&quot;73&quot; valign=&quot;top&quot; style=&quot;width: 55.1000pt ; padding: 0.0000pt 5.4000pt 0.0000pt 5.4000pt ; border-left: 1.0000pt solid ; border-right: 1.0000pt solid ; border-top: none ; border-bottom: 1.0000pt solid&quot;&gt;&lt;p class=&quot;MsoNormal&quot;&gt;&lt;span style=&quot;font-size: 10.5000pt&quot;&gt;&lt;font face=&quot;宋体&quot;&gt;不开源&lt;/font&gt;&lt;/span&gt;&lt;span style=&quot;font-size: 10.5000pt&quot;&gt;&lt;/span&gt;&lt;/p&gt;&lt;/td&gt;&lt;td width=&quot;80&quot; valign=&quot;top&quot; style=&quot;width: 60.0500pt ; padding: 0.0000pt 5.4000pt 0.0000pt 5.4000pt ; border-left: 1.0000pt solid ; border-right: 1.0000pt solid ; border-top: none ; border-bottom: 1.0000pt solid&quot;&gt;&lt;p class=&quot;MsoNormal&quot;&gt;&lt;span style=&quot;font-size: 10.5000pt&quot;&gt;&lt;font face=&quot;宋体&quot;&gt;完全开源&lt;/font&gt;&lt;/span&gt;&lt;span style=&quot;font-size: 10.5000pt&quot;&gt;&lt;/span&gt;&lt;/p&gt;&lt;/td&gt;&lt;td width=&quot;80&quot; valign=&quot;top&quot; style=&quot;width: 60.0500pt ; padding: 0.0000pt 5.4000pt 0.0000pt 5.4000pt ; border-left: 1.0000pt solid ; border-right: 1.0000pt solid ; border-top: none ; border-bottom: 1.0000pt solid&quot;&gt;&lt;p class=&quot;MsoNormal&quot;&gt;&lt;span style=&quot;font-size: 10.5000pt&quot;&gt;&lt;font face=&quot;宋体&quot;&gt;完全开源&lt;/font&gt;&lt;/span&gt;&lt;span style=&quot;font-size: 10.5000pt&quot;&gt;&lt;/span&gt;&lt;/p&gt;&lt;/td&gt;&lt;td width=&quot;73&quot; valign=&quot;top&quot; style=&quot;width: 55.1000pt ; padding: 0.0000pt 5.4000pt 0.0000pt 5.4000pt ; border-left: 1.0000pt solid ; border-right: 1.0000pt solid ; border-top: none ; border-bottom: 1.0000pt solid&quot;&gt;&lt;p class=&quot;MsoNormal&quot;&gt;&lt;span style=&quot;font-size: 10.5000pt&quot;&gt;&lt;font face=&quot;宋体&quot;&gt;完全开源&lt;/font&gt;&lt;/span&gt;&lt;span style=&quot;font-size: 10.5000pt&quot;&gt;&lt;/span&gt;&lt;/p&gt;&lt;/td&gt;&lt;td width=&quot;80&quot; valign=&quot;top&quot; style=&quot;width: 60.0500pt ; padding: 0.0000pt 5.4000pt 0.0000pt 5.4000pt ; border-left: 1.0000pt solid ; border-right: 1.0000pt solid ; border-top: none ; border-bottom: 1.0000pt solid&quot;&gt;&lt;p class=&quot;MsoNormal&quot;&gt;&lt;span style=&quot;font-size: 10.5000pt&quot;&gt;&lt;font face=&quot;宋体&quot;&gt;完全开源&lt;/font&gt;&lt;/span&gt;&lt;span style=&quot;font-size: 10.5000pt&quot;&gt;&lt;/span&gt;&lt;/p&gt;&lt;/td&gt;&lt;td width=&quot;80&quot; valign=&quot;top&quot; style=&quot;width: 60.0500pt ; padding: 0.0000pt 5.4000pt 0.0000pt 5.4000pt ; border-left: 1.0000pt solid ; border-right: 1.0000pt solid ; border-top: none ; border-bottom: 1.0000pt solid&quot;&gt;&lt;p class=&quot;MsoNormal&quot;&gt;&lt;span style=&quot;font-size: 10.5000pt&quot;&gt;&lt;font face=&quot;宋体&quot;&gt;完全开源&lt;/font&gt;&lt;/span&gt;&lt;span style=&quot;font-size: 10.5000pt&quot;&gt;&lt;/span&gt;&lt;/p&gt;&lt;/td&gt;&lt;td width=&quot;147&quot; valign=&quot;top&quot; style=&quot;width: 110.4000pt ; padding: 0.0000pt 5.4000pt 0.0000pt 5.4000pt ; border-left: 1.0000pt solid ; border-right: 1.0000pt solid ; border-top: none ; border-bottom: 1.0000pt solid&quot;&gt;&lt;p class=&quot;MsoNormal&quot;&gt;&lt;span style=&quot;font-size: 10.5000pt&quot;&gt;&lt;font face=&quot;宋体&quot;&gt;完全开源&lt;/font&gt;&lt;/span&gt;&lt;span style=&quot;font-size: 10.5000pt&quot;&gt;&lt;/span&gt;&lt;/p&gt;&lt;/td&gt;&lt;/tr&gt;&lt;tr&gt;&lt;td width=&quot;84&quot; valign=&quot;top&quot; style=&quot;width: 63.7000pt ; padding: 0.0000pt 5.4000pt 0.0000pt 5.4000pt ; border-left: 1.0000pt solid ; border-right: 1.0000pt solid ; border-top: none ; border-bottom: 1.0000pt solid&quot;&gt;&lt;p class=&quot;MsoNormal&quot;&gt;&lt;span style=&quot;font-size: 10.5000pt&quot;&gt;&lt;font face=&quot;宋体&quot;&gt;语言特性&lt;/font&gt;&lt;/span&gt;&lt;span style=&quot;font-size: 10.5000pt&quot;&gt;&lt;/span&gt;&lt;/p&gt;&lt;/td&gt;&lt;td width=&quot;73&quot; valign=&quot;top&quot; style=&quot;width: 55.1000pt ; padding: 0.0000pt 5.4000pt 0.0000pt 5.4000pt ; border-left: 1.0000pt solid ; border-right: 1.0000pt solid ; border-top: none ; border-bottom: 1.0000pt solid&quot;&gt;&lt;p class=&quot;MsoNormal&quot;&gt;&lt;span style=&quot;font-size: 10.5000pt&quot;&gt;&lt;font face=&quot;宋体&quot;&gt;微信小程序&lt;/font&gt;&lt;font face=&quot;宋体&quot;&gt;WXML/WXSS语法&lt;/font&gt;&lt;/span&gt;&lt;span style=&quot;font-size: 10.5000pt&quot;&gt;&lt;/span&gt;&lt;/p&gt;&lt;/td&gt;&lt;td width=&quot;80&quot; valign=&quot;top&quot; style=&quot;width: 60.0500pt ; padding: 0.0000pt 5.4000pt 0.0000pt 5.4000pt ; border-left: 1.0000pt solid ; border-right: 1.0000pt solid ; border-top: none ; border-bottom: 1.0000pt solid&quot;&gt;&lt;p class=&quot;MsoNormal&quot;&gt;&lt;span style=&quot;font-size: 10.5000pt&quot;&gt;&lt;font face=&quot;宋体&quot;&gt;类&lt;/font&gt;&lt;font face=&quot;宋体&quot;&gt;Vue语法&lt;/font&gt;&lt;/span&gt;&lt;span style=&quot;font-size: 10.5000pt&quot;&gt;&lt;/span&gt;&lt;/p&gt;&lt;/td&gt;&lt;td width=&quot;80&quot; valign=&quot;top&quot; style=&quot;width: 60.0500pt ; padding: 0.0000pt 5.4000pt 0.0000pt 5.4000pt ; border-left: 1.0000pt solid ; border-right: 1.0000pt solid ; border-top: none ; border-bottom: 1.0000pt solid&quot;&gt;&lt;p class=&quot;MsoNormal&quot;&gt;&lt;span style=&quot;font-size: 10.5000pt&quot;&gt;&lt;font face=&quot;宋体&quot;&gt;类&lt;/font&gt;&lt;font face=&quot;宋体&quot;&gt;React语法&lt;/font&gt;&lt;/span&gt;&lt;span style=&quot;font-size: 10.5000pt&quot;&gt;&lt;font face=&quot;宋体&quot;&gt;(&lt;/font&gt;&lt;/span&gt;&lt;span style=&quot;font-size: 10.5000pt&quot;&gt;&lt;font face=&quot;宋体&quot;&gt;最新版本&lt;/font&gt;&lt;font face=&quot;宋体&quot;&gt;V3中也支持vue语法&lt;/font&gt;&lt;/span&gt;&lt;span style=&quot;font-size: 10.5000pt&quot;&gt;&lt;font face=&quot;宋体&quot;&gt;)&lt;/font&gt;&lt;/span&gt;&lt;span style=&quot;font-size: 10.5000pt&quot;&gt;&lt;/span&gt;&lt;/p&gt;&lt;/td&gt;&lt;td width=&quot;73&quot; valign=&quot;top&quot; style=&quot;width: 55.1000pt ; padding: 0.0000pt 5.4000pt 0.0000pt 5.4000pt ; border-left: 1.0000pt solid ; border-right: 1.0000pt solid ; border-top: none ; border-bottom: 1.0000pt solid&quot;&gt;&lt;p class=&quot;MsoNormal&quot;&gt;&lt;span style=&quot;font-size: 10.5000pt&quot;&gt;&lt;font face=&quot;宋体&quot;&gt;类&lt;/font&gt;&lt;font face=&quot;宋体&quot;&gt;vue语法&lt;/font&gt;&lt;/span&gt;&lt;span style=&quot;font-size: 10.5000pt&quot;&gt;&lt;/span&gt;&lt;/p&gt;&lt;/td&gt;&lt;td width=&quot;80&quot; valign=&quot;top&quot; style=&quot;width: 60.0500pt ; padding: 0.0000pt 5.4000pt 0.0000pt 5.4000pt ; border-left: 1.0000pt solid ; border-right: 1.0000pt solid ; border-top: none ; border-bottom: 1.0000pt solid&quot;&gt;&lt;p class=&quot;MsoNormal&quot;&gt;&lt;span style=&quot;font-size: 10.5000pt&quot;&gt;&lt;font face=&quot;宋体&quot;&gt;类&lt;/font&gt;&lt;font face=&quot;宋体&quot;&gt;Vue语法&lt;/font&gt;&lt;/span&gt;&lt;span style=&quot;font-size: 10.5000pt&quot;&gt;&lt;/span&gt;&lt;/p&gt;&lt;/td&gt;&lt;td width=&quot;80&quot; valign=&quot;top&quot; style=&quot;width: 60.0500pt ; padding: 0.0000pt 5.4000pt 0.0000pt 5.4000pt ; border-left: 1.0000pt solid ; border-right: 1.0000pt solid ; border-top: none ; border-bottom: 1.0000pt solid&quot;&gt;&lt;p class=&quot;MsoNormal&quot;&gt;&lt;span style=&quot;font-size: 10.5000pt&quot;&gt;&lt;font face=&quot;宋体&quot;&gt;类&lt;/font&gt;&lt;font face=&quot;宋体&quot;&gt;Vue语法&lt;/font&gt;&lt;/span&gt;&lt;span style=&quot;font-size: 10.5000pt&quot;&gt;&lt;/span&gt;&lt;/p&gt;&lt;/td&gt;&lt;td width=&quot;147&quot; valign=&quot;top&quot; style=&quot;width: 110.4000pt ; padding: 0.0000pt 5.4000pt 0.0000pt 5.4000pt ; border-left: 1.0000pt solid ; border-right: 1.0000pt solid ; border-top: none ; border-bottom: 1.0000pt solid&quot;&gt;&lt;p class=&quot;MsoNormal&quot;&gt;&lt;span style=&quot;font-size: 10.5000pt&quot;&gt;&lt;font face=&quot;宋体&quot;&gt;类&lt;/font&gt;&lt;font face=&quot;宋体&quot;&gt;Vue语法&lt;/font&gt;&lt;/span&gt;&lt;span style=&quot;font-size: 10.5000pt&quot;&gt;&lt;/span&gt;&lt;/p&gt;&lt;/td&gt;&lt;/tr&gt;&lt;tr&gt;&lt;td width=&quot;84&quot; valign=&quot;top&quot; style=&quot;width: 63.7000pt ; padding: 0.0000pt 5.4000pt 0.0000pt 5.4000pt ; border-left: 1.0000pt solid ; border-right: 1.0000pt solid ; border-top: none ; border-bottom: 1.0000pt solid&quot;&gt;&lt;p class=&quot;MsoNormal&quot;&gt;&lt;span style=&quot;font-size: 10.5000pt&quot;&gt;&lt;font face=&quot;宋体&quot;&gt;社群活跃&lt;/font&gt;&lt;/span&gt;&lt;span style=&quot;font-size: 10.5000pt&quot;&gt;&lt;/span&gt;&lt;/p&gt;&lt;/td&gt;&lt;td width=&quot;73&quot; valign=&quot;top&quot; style=&quot;width: 55.1000pt ; padding: 0.0000pt 5.4000pt 0.0000pt 5.4000pt ; border-left: 1.0000pt solid ; border-right: 1.0000pt solid ; border-top: none ; border-bottom: 1.0000pt solid&quot;&gt;&lt;p class=&quot;MsoNormal&quot;&gt;&lt;span style=&quot;font-size: 10.5000pt&quot;&gt;&lt;font face=&quot;宋体&quot;&gt;-&lt;/font&gt;&lt;/span&gt;&lt;span style=&quot;font-size: 10.5000pt&quot;&gt;&lt;/span&gt;&lt;/p&gt;&lt;/td&gt;&lt;td width=&quot;80&quot; valign=&quot;top&quot; style=&quot;width: 60.0500pt ; padding: 0.0000pt 5.4000pt 0.0000pt 5.4000pt ; border-left: 1.0000pt solid ; border-right: 1.0000pt solid ; border-top: none ; border-bottom: 1.0000pt solid&quot;&gt;&lt;p class=&quot;MsoNormal&quot;&gt;&lt;span style=&quot;font-size: 10.5000pt&quot;&gt;&lt;font face=&quot;宋体&quot;&gt;git star36.4k,&lt;/font&gt;&lt;/span&gt;&lt;span style=&quot;font-size: 10.5000pt&quot;&gt;&lt;font face=&quot;宋体&quot;&gt;有论坛、社区、交流群等，论坛活跃，交流群多（&lt;/font&gt;&lt;font face=&quot;宋体&quot;&gt;35个2000人群）且回复及时&lt;/font&gt;&lt;/span&gt;&lt;span style=&quot;font-size: 10.5000pt&quot;&gt;&lt;/span&gt;&lt;/p&gt;&lt;/td&gt;&lt;td width=&quot;80&quot; valign=&quot;top&quot; style=&quot;width: 60.0500pt ; padding: 0.0000pt 5.4000pt 0.0000pt 5.4000pt ; border-left: 1.0000pt solid ; border-right: 1.0000pt solid ; border-top: none ; border-bottom: 1.0000pt solid&quot;&gt;&lt;p class=&quot;MsoNormal&quot;&gt;&lt;span style=&quot;font-size: 10.5000pt&quot;&gt;&lt;font face=&quot;宋体&quot;&gt;git star30.9k,&lt;/font&gt;&lt;/span&gt;&lt;span style=&quot;font-size: 10.5000pt&quot;&gt;&lt;font face=&quot;宋体&quot;&gt;有论坛、社区、交流群等，论坛活跃&lt;/font&gt;&lt;/span&gt;&lt;span style=&quot;font-size: 10.5000pt&quot;&gt;&lt;/span&gt;&lt;/p&gt;&lt;/td&gt;&lt;td width=&quot;73&quot; valign=&quot;top&quot; style=&quot;width: 55.1000pt ; padding: 0.0000pt 5.4000pt 0.0000pt 5.4000pt ; border-left: 1.0000pt solid ; border-right: 1.0000pt solid ; border-top: none ; border-bottom: 1.0000pt solid&quot;&gt;&lt;p class=&quot;MsoNormal&quot;&gt;&lt;span style=&quot;font-size: 10.5000pt&quot;&gt;&lt;font face=&quot;宋体&quot;&gt;git star4.3k无&lt;/font&gt;&lt;/span&gt;&lt;span style=&quot;font-size: 10.5000pt&quot;&gt;&lt;font face=&quot;宋体&quot;&gt;论坛、&lt;/font&gt;&lt;/span&gt;&lt;span style=&quot;font-size: 10.5000pt&quot;&gt;&lt;font face=&quot;宋体&quot;&gt;有社区，&lt;/font&gt;&lt;/span&gt;&lt;span style=&quot;font-size: 10.5000pt&quot;&gt;&lt;font face=&quot;宋体&quot;&gt;一个交流群&lt;/font&gt;&lt;/span&gt;&lt;span style=&quot;font-size: 10.5000pt&quot;&gt;&lt;/span&gt;&lt;/p&gt;&lt;/td&gt;&lt;td width=&quot;80&quot; valign=&quot;top&quot; style=&quot;width: 60.0500pt ; padding: 0.0000pt 5.4000pt 0.0000pt 5.4000pt ; border-left: 1.0000pt solid ; border-right: 1.0000pt solid ; border-top: none ; border-bottom: 1.0000pt solid&quot;&gt;&lt;p class=&quot;MsoNormal&quot;&gt;&lt;span style=&quot;font-size: 10.5000pt&quot;&gt;&lt;font face=&quot;宋体&quot;&gt;git star21.8k&lt;/font&gt;&lt;/span&gt;&lt;span style=&quot;font-size: 10.5000pt&quot;&gt;&lt;font face=&quot;宋体&quot;&gt;无论坛、无交流群；只能网搜或者提&lt;/font&gt;&lt;font face=&quot;宋体&quot;&gt;issues&lt;/font&gt;&lt;/span&gt;&lt;span style=&quot;font-size: 10.5000pt&quot;&gt;&lt;/span&gt;&lt;/p&gt;&lt;/td&gt;&lt;td width=&quot;80&quot; valign=&quot;top&quot; style=&quot;width: 60.0500pt ; padding: 0.0000pt 5.4000pt 0.0000pt 5.4000pt ; border-left: 1.0000pt solid ; border-right: 1.0000pt solid ; border-top: none ; border-bottom: 1.0000pt solid&quot;&gt;&lt;p class=&quot;MsoNormal&quot;&gt;&lt;span style=&quot;font-size: 10.5000pt&quot;&gt;&lt;font face=&quot;宋体&quot;&gt;git star20.4k&lt;/font&gt;&lt;/span&gt;&lt;span style=&quot;font-size: 10.5000pt&quot;&gt;&lt;font face=&quot;宋体&quot;&gt;无论坛、无交流群；只能网搜或者提&lt;/font&gt;&lt;font face=&quot;宋体&quot;&gt;issues&lt;/font&gt;&lt;/span&gt;&lt;span style=&quot;font-size: 10.5000pt&quot;&gt;&lt;/span&gt;&lt;/p&gt;&lt;/td&gt;&lt;td width=&quot;147&quot; valign=&quot;top&quot; style=&quot;width: 110.4000pt ; padding: 0.0000pt 5.4000pt 0.0000pt 5.4000pt ; border-left: 1.0000pt solid ; border-right: 1.0000pt solid ; border-top: none ; border-bottom: 1.0000pt solid&quot;&gt;&lt;p class=&quot;MsoNormal&quot;&gt;&lt;span style=&quot;font-size: 10.5000pt&quot;&gt;&lt;font face=&quot;宋体&quot;&gt;git star8.8k&lt;/font&gt;&lt;/span&gt;&lt;span style=&quot;font-size: 10.5000pt&quot;&gt;&lt;/span&gt;&lt;/p&gt;&lt;p class=&quot;MsoNormal&quot;&gt;&lt;span style=&quot;font-size: 10.5000pt&quot;&gt;&lt;font face=&quot;宋体&quot;&gt;官方文档提供了微信、&lt;/font&gt;&lt;font face=&quot;宋体&quot;&gt;QQ交流群&lt;/font&gt;&lt;/span&gt;&lt;span style=&quot;font-size: 10.5000pt&quot;&gt;&lt;/span&gt;&lt;/p&gt;&lt;/td&gt;&lt;/tr&gt;&lt;tr&gt;&lt;td width=&quot;84&quot; valign=&quot;top&quot; style=&quot;width: 63.7000pt ; padding: 0.0000pt 5.4000pt 0.0000pt 5.4000pt ; border-left: 1.0000pt solid ; border-right: 1.0000pt solid ; border-top: none ; border-bottom: 1.0000pt solid&quot;&gt;&lt;p class=&quot;MsoNormal&quot;&gt;&lt;span style=&quot;font-size: 10.5000pt&quot;&gt;&lt;font face=&quot;宋体&quot;&gt;多端兼容&lt;/font&gt;&lt;/span&gt;&lt;span style=&quot;font-size: 10.5000pt&quot;&gt;&lt;/span&gt;&lt;/p&gt;&lt;/td&gt;&lt;td width=&quot;73&quot; valign=&quot;top&quot; style=&quot;width: 55.1000pt ; padding: 0.0000pt 5.4000pt 0.0000pt 5.4000pt ; border-left: 1.0000pt solid ; border-right: 1.0000pt solid ; border-top: none ; border-bottom: 1.0000pt solid&quot;&gt;&lt;p class=&quot;MsoNormal&quot;&gt;&lt;span style=&quot;font-size: 10.5000pt&quot;&gt;&lt;font face=&quot;宋体&quot;&gt;微信小程序&lt;/font&gt;&lt;/span&gt;&lt;span style=&quot;font-size: 10.5000pt&quot;&gt;&lt;/span&gt;&lt;/p&gt;&lt;/td&gt;&lt;td width=&quot;80&quot; valign=&quot;top&quot; style=&quot;width: 60.0500pt ; padding: 0.0000pt 5.4000pt 0.0000pt 5.4000pt ; border-left: 1.0000pt solid ; border-right: 1.0000pt solid ; border-top: none ; border-bottom: 1.0000pt solid&quot;&gt;&lt;p class=&quot;MsoNormal&quot;&gt;&lt;span style=&quot;font-size: 10.5000pt&quot;&gt;&lt;font face=&quot;宋体&quot;&gt;微信小程序、&lt;/font&gt;&lt;font face=&quot;宋体&quot;&gt;H5、&lt;/font&gt;&lt;/span&gt;&lt;span style=&quot;font-size: 10.5000pt&quot;&gt;&lt;font face=&quot;宋体&quot;&gt;安卓应用、&lt;/font&gt;&lt;font face=&quot;宋体&quot;&gt;IOS应用、百度小程序、支付宝小程序、京东小程序、字节跳动小程序、QQ小程序、快应用、360小程序、快手小程序、钉钉小程序、飞书小程序&lt;/font&gt;&lt;/span&gt;&lt;span style=&quot;font-size: 10.5000pt&quot;&gt;&lt;/span&gt;&lt;/p&gt;&lt;/td&gt;&lt;td width=&quot;80&quot; valign=&quot;top&quot; style=&quot;width: 60.0500pt ; padding: 0.0000pt 5.4000pt 0.0000pt 5.4000pt ; border-left: 1.0000pt solid ; border-right: 1.0000pt solid ; border-top: none ; border-bottom: 1.0000pt solid&quot;&gt;&lt;p class=&quot;MsoNormal&quot;&gt;&lt;span style=&quot;font-size: 10.5000pt&quot;&gt;&lt;font face=&quot;宋体&quot;&gt;微信小程序、&lt;/font&gt;&lt;font face=&quot;宋体&quot;&gt;H5、&lt;/font&gt;&lt;/span&gt;&lt;span style=&quot;font-size: 10.5000pt&quot;&gt;&lt;font face=&quot;宋体&quot;&gt;安卓应用、&lt;/font&gt;&lt;font face=&quot;宋体&quot;&gt;IOS应用、百度小程序、支付宝小程序、京东小程序、字节跳动小程序、QQ小程序、钉钉小程序、飞书小程序&lt;/font&gt;&lt;/span&gt;&lt;span style=&quot;font-size: 10.5000pt&quot;&gt;&lt;/span&gt;&lt;/p&gt;&lt;p class=&quot;MsoNormal&quot;&gt;&lt;span style=&quot;font-size: 10.5000pt&quot;&gt;&amp;nbsp;&lt;/span&gt;&lt;/p&gt;&lt;/td&gt;&lt;td width=&quot;73&quot; valign=&quot;top&quot; style=&quot;width: 55.1000pt ; padding: 0.0000pt 5.4000pt 0.0000pt 5.4000pt ; border-left: 1.0000pt solid ; border-right: 1.0000pt solid ; border-top: none ; border-bottom: 1.0000pt solid&quot;&gt;&lt;p class=&quot;MsoNormal&quot;&gt;&lt;span style=&quot;font-size: 10.5000pt&quot;&gt;&lt;font face=&quot;宋体&quot;&gt;微信&lt;/font&gt;&lt;/span&gt;&lt;span style=&quot;font-size: 10.5000pt&quot;&gt;&lt;font face=&quot;宋体&quot;&gt;小程序&lt;/font&gt;&lt;/span&gt;&lt;span style=&quot;font-size: 10.5000pt&quot;&gt;&lt;font face=&quot;宋体&quot;&gt;、&lt;/font&gt;&lt;font face=&quot;宋体&quot;&gt;H5&lt;/font&gt;&lt;/span&gt;&lt;span style=&quot;font-size: 10.5000pt&quot;&gt;&lt;/span&gt;&lt;/p&gt;&lt;/td&gt;&lt;td width=&quot;80&quot; valign=&quot;top&quot; style=&quot;width: 60.0500pt ; padding: 0.0000pt 5.4000pt 0.0000pt 5.4000pt ; border-left: 1.0000pt solid ; border-right: 1.0000pt solid ; border-top: none ; border-bottom: 1.0000pt solid&quot;&gt;&lt;p class=&quot;MsoNormal&quot;&gt;&lt;span style=&quot;font-size: 10.5000pt&quot;&gt;&lt;font face=&quot;宋体&quot;&gt;微信&lt;/font&gt;&lt;/span&gt;&lt;span style=&quot;font-size: 10.5000pt&quot;&gt;&lt;font face=&quot;宋体&quot;&gt;小程序&lt;/font&gt;&lt;/span&gt;&lt;span style=&quot;font-size: 10.5000pt&quot;&gt;&lt;/span&gt;&lt;/p&gt;&lt;/td&gt;&lt;td width=&quot;80&quot; valign=&quot;top&quot; style=&quot;width: 60.0500pt ; padding: 0.0000pt 5.4000pt 0.0000pt 5.4000pt ; border-left: 1.0000pt solid ; border-right: 1.0000pt solid ; border-top: none ; border-bottom: 1.0000pt solid&quot;&gt;&lt;p class=&quot;MsoNormal&quot;&gt;&lt;span style=&quot;font-size: 10.5000pt&quot;&gt;&lt;font face=&quot;宋体&quot;&gt;微信&lt;/font&gt;&lt;/span&gt;&lt;span style=&quot;font-size: 10.5000pt&quot;&gt;&lt;font face=&quot;宋体&quot;&gt;小程序&lt;/font&gt;&lt;/span&gt;&lt;span style=&quot;font-size: 10.5000pt&quot;&gt;&lt;font face=&quot;宋体&quot;&gt;、支付宝&lt;/font&gt;&lt;/span&gt;&lt;span style=&quot;font-size: 10.5000pt&quot;&gt;&lt;font face=&quot;宋体&quot;&gt;小程序&lt;/font&gt;&lt;/span&gt;&lt;span style=&quot;font-size: 10.5000pt&quot;&gt;&lt;font face=&quot;宋体&quot;&gt;、百度&lt;/font&gt;&lt;/span&gt;&lt;span style=&quot;font-size: 10.5000pt&quot;&gt;&lt;font face=&quot;宋体&quot;&gt;小程序&lt;/font&gt;&lt;/span&gt;&lt;span style=&quot;font-size: 10.5000pt&quot;&gt;&lt;font face=&quot;宋体&quot;&gt;、头条&lt;/font&gt;&lt;/span&gt;&lt;span style=&quot;font-size: 10.5000pt&quot;&gt;&lt;font face=&quot;宋体&quot;&gt;小程序&lt;/font&gt;&lt;/span&gt;&lt;span style=&quot;font-size: 10.5000pt&quot;&gt;&lt;/span&gt;&lt;/p&gt;&lt;/td&gt;&lt;td width=&quot;147&quot; valign=&quot;top&quot; style=&quot;width: 110.4000pt ; padding: 0.0000pt 5.4000pt 0.0000pt 5.4000pt ; border-left: 1.0000pt solid ; border-right: 1.0000pt solid ; border-top: none ; border-bottom: 1.0000pt solid&quot;&gt;&lt;p class=&quot;MsoNormal&quot;&gt;&lt;span style=&quot;font-size: 10.5000pt&quot;&gt;&lt;font face=&quot;宋体&quot;&gt;微信&lt;/font&gt;&lt;/span&gt;&lt;span style=&quot;font-size: 10.5000pt&quot;&gt;&lt;font face=&quot;宋体&quot;&gt;小程序&lt;/font&gt;&lt;/span&gt;&lt;span style=&quot;font-size: 10.5000pt&quot;&gt;&lt;font face=&quot;宋体&quot;&gt;、&lt;/font&gt;&lt;font face=&quot;宋体&quot;&gt;H5&lt;/font&gt;&lt;/span&gt;&lt;span style=&quot;font-size: 10.5000pt&quot;&gt;&lt;font face=&quot;宋体&quot;&gt;、&lt;/font&gt;&lt;/span&gt;&lt;span style=&quot;font-size: 10.5000pt&quot;&gt;&lt;font face=&quot;宋体&quot;&gt;支付宝小程序、&lt;/font&gt;&lt;font face=&quot;宋体&quot;&gt;QQ小程序、百度小程序&lt;/font&gt;&lt;/span&gt;&lt;span style=&quot;font-size: 10.5000pt&quot;&gt;&lt;/span&gt;&lt;/p&gt;&lt;/td&gt;&lt;/tr&gt;&lt;tr&gt;&lt;td width=&quot;84&quot; valign=&quot;top&quot; style=&quot;width: 63.7000pt ; padding: 0.0000pt 5.4000pt 0.0000pt 5.4000pt ; border-left: 1.0000pt solid ; border-right: 1.0000pt solid ; border-top: none ; border-bottom: 1.0000pt solid&quot;&gt;&lt;p class=&quot;MsoNormal&quot;&gt;&lt;span style=&quot;font-size: 10.5000pt&quot;&gt;&lt;font face=&quot;宋体&quot;&gt;学习成本&lt;/font&gt;&lt;/span&gt;&lt;span style=&quot;font-size: 10.5000pt&quot;&gt;&lt;/span&gt;&lt;/p&gt;&lt;/td&gt;&lt;td width=&quot;73&quot; valign=&quot;top&quot; style=&quot;width: 55.1000pt ; padding: 0.0000pt 5.4000pt 0.0000pt 5.4000pt ; border-left: 1.0000pt solid ; border-right: 1.0000pt solid ; border-top: none ; border-bottom: 1.0000pt solid&quot;&gt;&lt;p class=&quot;MsoNormal&quot;&gt;&lt;span style=&quot;font-size: 10.5000pt&quot;&gt;&lt;font face=&quot;宋体&quot;&gt;高&lt;/font&gt;&lt;/span&gt;&lt;span style=&quot;font-size: 10.5000pt&quot;&gt;&lt;/span&gt;&lt;/p&gt;&lt;/td&gt;&lt;td width=&quot;80&quot; valign=&quot;top&quot; style=&quot;width: 60.0500pt ; padding: 0.0000pt 5.4000pt 0.0000pt 5.4000pt ; border-left: 1.0000pt solid ; border-right: 1.0000pt solid ; border-top: none ; border-bottom: 1.0000pt solid&quot;&gt;&lt;p class=&quot;MsoNormal&quot;&gt;&lt;span style=&quot;font-size: 10.5000pt&quot;&gt;&lt;font face=&quot;宋体&quot;&gt;低&lt;/font&gt;&lt;/span&gt;&lt;span style=&quot;font-size: 10.5000pt&quot;&gt;&lt;/span&gt;&lt;/p&gt;&lt;/td&gt;&lt;td width=&quot;80&quot; valign=&quot;top&quot; style=&quot;width: 60.0500pt ; padding: 0.0000pt 5.4000pt 0.0000pt 5.4000pt ; border-left: 1.0000pt solid ; border-right: 1.0000pt solid ; border-top: none ; border-bottom: 1.0000pt solid&quot;&gt;&lt;p class=&quot;MsoNormal&quot;&gt;&lt;span style=&quot;font-size: 10.5000pt&quot;&gt;&lt;font face=&quot;宋体&quot;&gt;中&lt;/font&gt;&lt;/span&gt;&lt;span style=&quot;font-size: 10.5000pt&quot;&gt;&lt;/span&gt;&lt;/p&gt;&lt;/td&gt;&lt;td width=&quot;73&quot; valign=&quot;top&quot; style=&quot;width: 55.1000pt ; padding: 0.0000pt 5.4000pt 0.0000pt 5.4000pt ; border-left: 1.0000pt solid ; border-right: 1.0000pt solid ; border-top: none ; border-bottom: 1.0000pt solid&quot;&gt;&lt;p class=&quot;MsoNormal&quot;&gt;&lt;span style=&quot;font-size: 10.5000pt&quot;&gt;&lt;font face=&quot;宋体&quot;&gt;低&lt;/font&gt;&lt;/span&gt;&lt;span style=&quot;font-size: 10.5000pt&quot;&gt;&lt;/span&gt;&lt;/p&gt;&lt;/td&gt;&lt;td width=&quot;80&quot; valign=&quot;top&quot; style=&quot;width: 60.0500pt ; padding: 0.0000pt 5.4000pt 0.0000pt 5.4000pt ; border-left: 1.0000pt solid ; border-right: 1.0000pt solid ; border-top: none ; border-bottom: 1.0000pt solid&quot;&gt;&lt;p class=&quot;MsoNormal&quot;&gt;&lt;span style=&quot;font-size: 10.5000pt&quot;&gt;&lt;font face=&quot;宋体&quot;&gt;低&lt;/font&gt;&lt;/span&gt;&lt;span style=&quot;font-size: 10.5000pt&quot;&gt;&lt;/span&gt;&lt;/p&gt;&lt;/td&gt;&lt;td width=&quot;80&quot; valign=&quot;top&quot; style=&quot;width: 60.0500pt ; padding: 0.0000pt 5.4000pt 0.0000pt 5.4000pt ; border-left: 1.0000pt solid ; border-right: 1.0000pt solid ; border-top: none ; border-bottom: 1.0000pt solid&quot;&gt;&lt;p class=&quot;MsoNormal&quot;&gt;&lt;span style=&quot;font-size: 10.5000pt&quot;&gt;&lt;font face=&quot;宋体&quot;&gt;低&lt;/font&gt;&lt;/span&gt;&lt;span style=&quot;font-size: 10.5000pt&quot;&gt;&lt;/span&gt;&lt;/p&gt;&lt;/td&gt;&lt;td width=&quot;147&quot; valign=&quot;top&quot; style=&quot;width: 110.4000pt ; padding: 0.0000pt 5.4000pt 0.0000pt 5.4000pt ; border-left: 1.0000pt solid ; border-right: 1.0000pt solid ; border-top: none ; border-bottom: 1.0000pt solid&quot;&gt;&lt;p class=&quot;MsoNormal&quot;&gt;&lt;span style=&quot;font-size: 10.5000pt&quot;&gt;&lt;font face=&quot;宋体&quot;&gt;低&lt;/font&gt;&lt;/span&gt;&lt;span style=&quot;font-size: 10.5000pt&quot;&gt;&lt;/span&gt;&lt;/p&gt;&lt;/td&gt;&lt;/tr&gt;&lt;tr&gt;&lt;td width=&quot;84&quot; valign=&quot;top&quot; style=&quot;width: 63.7000pt ; padding: 0.0000pt 5.4000pt 0.0000pt 5.4000pt ; border-left: 1.0000pt solid ; border-right: 1.0000pt solid ; border-top: none ; border-bottom: 1.0000pt solid&quot;&gt;&lt;p class=&quot;MsoNormal&quot;&gt;&lt;span style=&quot;font-size: 10.5000pt&quot;&gt;&lt;font face=&quot;宋体&quot;&gt;最后更新时间&lt;/font&gt;&lt;/span&gt;&lt;span style=&quot;font-size: 10.5000pt&quot;&gt;&lt;/span&gt;&lt;/p&gt;&lt;/td&gt;&lt;td width=&quot;73&quot; valign=&quot;top&quot; style=&quot;width: 55.1000pt ; padding: 0.0000pt 5.4000pt 0.0000pt 5.4000pt ; border-left: 1.0000pt solid ; border-right: 1.0000pt solid ; border-top: none ; border-bottom: 1.0000pt solid&quot;&gt;&lt;p class=&quot;MsoNormal&quot;&gt;&lt;span style=&quot;font-size: 10.5000pt&quot;&gt;&lt;font face=&quot;宋体&quot;&gt;-&lt;/font&gt;&lt;/span&gt;&lt;span style=&quot;font-size: 10.5000pt&quot;&gt;&lt;/span&gt;&lt;/p&gt;&lt;/td&gt;&lt;td width=&quot;80&quot; valign=&quot;top&quot; style=&quot;width: 60.0500pt ; padding: 0.0000pt 5.4000pt 0.0000pt 5.4000pt ; border-left: 1.0000pt solid ; border-right: 1.0000pt solid ; border-top: none ; border-bottom: 1.0000pt solid&quot;&gt;&lt;p class=&quot;MsoNormal&quot;&gt;&lt;span style=&quot;font-size: 10.5000pt&quot;&gt;&lt;font face=&quot;宋体&quot;&gt;2022年4月&lt;/font&gt;&lt;/span&gt;&lt;span style=&quot;font-size: 10.5000pt&quot;&gt;&lt;/span&gt;&lt;/p&gt;&lt;/td&gt;&lt;td width=&quot;80&quot; valign=&quot;top&quot; style=&quot;width: 60.0500pt ; padding: 0.0000pt 5.4000pt 0.0000pt 5.4000pt ; border-left: 1.0000pt solid ; border-right: 1.0000pt solid ; border-top: none ; border-bottom: 1.0000pt solid&quot;&gt;&lt;p class=&quot;MsoNormal&quot;&gt;&lt;span style=&quot;font-size: 10.5000pt&quot;&gt;&lt;font face=&quot;宋体&quot;&gt;2022年4月&lt;/font&gt;&lt;/span&gt;&lt;span style=&quot;font-size: 10.5000pt&quot;&gt;&lt;/span&gt;&lt;/p&gt;&lt;/td&gt;&lt;td width=&quot;73&quot; valign=&quot;top&quot; style=&quot;width: 55.1000pt ; padding: 0.0000pt 5.4000pt 0.0000pt 5.4000pt ; border-left: 1.0000pt solid ; border-right: 1.0000pt solid ; border-top: none ; border-bottom: 1.0000pt solid&quot;&gt;&lt;p class=&quot;MsoNormal&quot;&gt;&lt;span style=&quot;font-size: 10.5000pt&quot;&gt;&lt;font face=&quot;宋体&quot;&gt;2022年4月&lt;/font&gt;&lt;/span&gt;&lt;span style=&quot;font-size: 10.5000pt&quot;&gt;&lt;/span&gt;&lt;/p&gt;&lt;/td&gt;&lt;td width=&quot;80&quot; valign=&quot;top&quot; style=&quot;width: 60.0500pt ; padding: 0.0000pt 5.4000pt 0.0000pt 5.4000pt ; border-left: 1.0000pt solid ; border-right: 1.0000pt solid ; border-top: none ; border-bottom: 1.0000pt solid&quot;&gt;&lt;p class=&quot;MsoNormal&quot;&gt;&lt;span style=&quot;font-size: 10.5000pt&quot;&gt;&lt;font face=&quot;宋体&quot;&gt;2020年7月&lt;/font&gt;&lt;/span&gt;&lt;span style=&quot;font-size: 10.5000pt&quot;&gt;&lt;/span&gt;&lt;/p&gt;&lt;/td&gt;&lt;td width=&quot;80&quot; valign=&quot;top&quot; style=&quot;width: 60.0500pt ; padding: 0.0000pt 5.4000pt 0.0000pt 5.4000pt ; border-left: 1.0000pt solid ; border-right: 1.0000pt solid ; border-top: none ; border-bottom: 1.0000pt solid&quot;&gt;&lt;p class=&quot;MsoNormal&quot;&gt;&lt;span style=&quot;font-size: 10.5000pt&quot;&gt;&lt;font face=&quot;宋体&quot;&gt;2019年5月&lt;/font&gt;&lt;/span&gt;&lt;span style=&quot;font-size: 10.5000pt&quot;&gt;&lt;/span&gt;&lt;/p&gt;&lt;/td&gt;&lt;td width=&quot;147&quot; valign=&quot;top&quot; style=&quot;width: 110.4000pt ; padding: 0.0000pt 5.4000pt 0.0000pt 5.4000pt ; border-left: 1.0000pt solid ; border-right: 1.0000pt solid ; border-top: none ; border-bottom: 1.0000pt solid&quot;&gt;&lt;p class=&quot;MsoNormal&quot;&gt;&lt;span style=&quot;font-size: 10.5000pt&quot;&gt;&lt;font face=&quot;宋体&quot;&gt;2020年11月&lt;/font&gt;&lt;/span&gt;&lt;span style=&quot;font-size: 10.5000pt&quot;&gt;&lt;/span&gt;&lt;/p&gt;&lt;/td&gt;&lt;/tr&gt;&lt;tr&gt;&lt;td width=&quot;84&quot; valign=&quot;top&quot; style=&quot;width: 63.7000pt ; padding: 0.0000pt 5.4000pt 0.0000pt 5.4000pt ; border-left: 1.0000pt solid ; border-right: 1.0000pt solid ; border-top: none ; border-bottom: 1.0000pt solid&quot;&gt;&lt;p class=&quot;MsoNormal&quot;&gt;&lt;span style=&quot;font-size: 10.5000pt&quot;&gt;&lt;font face=&quot;宋体&quot;&gt;官方地址&lt;/font&gt;&lt;/span&gt;&lt;span style=&quot;font-size: 10.5000pt&quot;&gt;&lt;/span&gt;&lt;/p&gt;&lt;/td&gt;&lt;td width=&quot;73&quot; valign=&quot;top&quot; style=&quot;width: 55.1000pt ; padding: 0.0000pt 5.4000pt 0.0000pt 5.4000pt ; border-left: 1.0000pt solid ; border-right: 1.0000pt solid ; border-top: none ; border-bottom: 1.0000pt solid&quot;&gt;&lt;p class=&quot;MsoNormal&quot;&gt;&lt;span style=&quot;font-size: 10.5000pt&quot;&gt;&lt;font face=&quot;宋体&quot;&gt;https://developers.weixin.qq.com&lt;/font&gt;&lt;/span&gt;&lt;/p&gt;&lt;p class=&quot;MsoNormal&quot;&gt;&lt;span style=&quot;font-size: 10.5000pt&quot;&gt;&lt;font face=&quot;宋体&quot;&gt;/miniprogram/dev/framework/MINA.html&lt;/font&gt;&lt;/span&gt;&lt;span style=&quot;font-size: 10.5000pt&quot;&gt;&lt;/span&gt;&lt;/p&gt;&lt;/td&gt;&lt;td width=&quot;80&quot; valign=&quot;top&quot; style=&quot;width: 60.0500pt ; padding: 0.0000pt 5.4000pt 0.0000pt 5.4000pt ; border-left: 1.0000pt solid ; border-right: 1.0000pt solid ; border-top: none ; border-bottom: 1.0000pt solid&quot;&gt;&lt;p class=&quot;MsoNormal&quot;&gt;&lt;span style=&quot;font-size: 10.5000pt&quot;&gt;&lt;font face=&quot;宋体&quot;&gt;https://uniapp.dcloud.io/&lt;/font&gt;&lt;/span&gt;&lt;span style=&quot;font-size: 10.5000pt&quot;&gt;&lt;/span&gt;&lt;/p&gt;&lt;/td&gt;&lt;td width=&quot;80&quot; valign=&quot;top&quot; style=&quot;width: 60.0500pt ; padding: 0.0000pt 5.4000pt 0.0000pt 5.4000pt ; border-left: 1.0000pt solid ; border-right: 1.0000pt solid ; border-top: none ; border-bottom: 1.0000pt solid&quot;&gt;&lt;p class=&quot;MsoNormal&quot;&gt;&lt;span style=&quot;font-size: 10.5000pt&quot;&gt;&lt;font face=&quot;宋体&quot;&gt;https://taro.jd.com/&lt;/font&gt;&lt;/span&gt;&lt;span style=&quot;font-size: 10.5000pt&quot;&gt;&lt;/span&gt;&lt;/p&gt;&lt;/td&gt;&lt;td width=&quot;73&quot; valign=&quot;top&quot; style=&quot;width: 55.1000pt ; padding: 0.0000pt 5.4000pt 0.0000pt 5.4000pt ; border-left: 1.0000pt solid ; border-right: 1.0000pt solid ; border-top: none ; border-bottom: 1.0000pt solid&quot;&gt;&lt;p class=&quot;MsoNormal&quot;&gt;&lt;span style=&quot;font-size: 10.5000pt&quot;&gt;&lt;font face=&quot;宋体&quot;&gt;https://developers.weixin.qq.com&lt;/font&gt;&lt;/span&gt;&lt;/p&gt;&lt;p class=&quot;MsoNormal&quot;&gt;&lt;span style=&quot;font-size: 10.5000pt&quot;&gt;&lt;font face=&quot;宋体&quot;&gt;/miniprogram/kbone/docs/&lt;/font&gt;&lt;/span&gt;&lt;span style=&quot;font-size: 10.5000pt&quot;&gt;&lt;/span&gt;&lt;/p&gt;&lt;/td&gt;&lt;td width=&quot;80&quot; valign=&quot;top&quot; style=&quot;width: 60.0500pt ; padding: 0.0000pt 5.4000pt 0.0000pt 5.4000pt ; border-left: 1.0000pt solid ; border-right: 1.0000pt solid ; border-top: none ; border-bottom: 1.0000pt solid&quot;&gt;&lt;p class=&quot;MsoNormal&quot;&gt;&lt;span style=&quot;font-size: 10.5000pt&quot;&gt;&lt;a href=&quot;https://wepyjs.github.io/wepy-docs/&quot;&gt;&lt;font face=&quot;宋体&quot;&gt;https://wepyjs.github.io/wepy-docs/&lt;/font&gt;&lt;/a&gt;&lt;/span&gt;&lt;span style=&quot;font-size: 10.5000pt&quot;&gt;&lt;span&gt;&amp;nbsp;&lt;/span&gt;&lt;/span&gt;&lt;span style=&quot;font-size: 10.5000pt&quot;&gt;&lt;/span&gt;&lt;/p&gt;&lt;/td&gt;&lt;td width=&quot;80&quot; valign=&quot;top&quot; style=&quot;width: 60.0500pt ; padding: 0.0000pt 5.4000pt 0.0000pt 5.4000pt ; border-left: 1.0000pt solid ; border-right: 1.0000pt solid ; border-top: none ; border-bottom: 1.0000pt solid&quot;&gt;&lt;p class=&quot;MsoNormal&quot;&gt;&lt;span style=&quot;font-size: 10.5000pt&quot;&gt;&lt;font face=&quot;宋体&quot;&gt;http://mpvue.com/&lt;/font&gt;&lt;/span&gt;&lt;span style=&quot;font-size: 10.5000pt&quot;&gt;&lt;/span&gt;&lt;/p&gt;&lt;/td&gt;&lt;td width=&quot;147&quot; valign=&quot;top&quot; style=&quot;width: 110.4000pt ; padding: 0.0000pt 5.4000pt 0.0000pt 5.4000pt ; border-left: 1.0000pt solid ; border-right: 1.0000pt solid ; border-top: none ; border-bottom: 1.0000pt solid&quot;&gt;&lt;p class=&quot;MsoNormal&quot;&gt;&lt;span style=&quot;font-size: 10.5000pt&quot;&gt;&lt;font face=&quot;宋体&quot;&gt;https://cml.js.org/&lt;/font&gt;&lt;/span&gt;&lt;span style=&quot;font-size: 10.5000pt&quot;&gt;&lt;/span&gt;&lt;/p&gt;&lt;/td&gt;&lt;/tr&gt;&lt;/tbody&gt;&lt;/table&gt;" style="text;whiteSpace=wrap;html=1;" vertex="1" parent="1">
          <mxGeometry x="240" y="920" width="1590" height="940" as="geometry" />
        </mxCell>
      </root>
    </mxGraphModel>
  </diagram>
</mxfile>
